<svg width="87" height="61" viewBox="0 0 87 61" fill="none" xmlns="http://www.w3.org/2000/svg">
    <path d="M17.9108 0.153809H2.88849C1.5124 0.153809 0.384766 1.28144 0.384766 2.65753V57.7395C0.384766 59.1156 1.5124 60.2432 2.88849 60.2432H17.9108C19.2869 60.2432 20.4146 59.1156 20.4146 57.7395V2.65753C20.4146 1.28144 19.2869 0.153809 17.9108 0.153809ZM15.4071 15.1762H5.39222V10.1687H15.4071V15.1762Z" fill="#172F3E"/>
    <path d="M42.948 0.153809H27.9256C26.5495 0.153809 25.4219 1.28144 25.4219 2.65753V57.7395C25.4219 59.1156 26.5495 60.2432 27.9256 60.2432H42.948C44.324 60.2432 45.4517 59.1156 45.4517 57.7395V2.65753C45.4517 1.28144 44.324 0.153809 42.948 0.153809ZM40.4442 15.1762H30.4293V10.1687H40.4442V15.1762Z" fill="#F3AB3F"/>
    <path d="M60.2437 4.03385L46.8268 10.7805C45.6036 11.3921 45.1067 12.9211 45.7183 14.1443L68.2327 58.8482C68.8443 60.0714 70.3733 60.5684 71.5965 59.9568L85.0134 53.191C86.2366 52.5794 86.7335 51.0504 86.1219 49.8272L63.5884 5.14237C62.9768 3.90006 61.4669 3.40314 60.2437 4.03385Z" fill="#CB5044"/>
    <path d="M72.9928 57.7401C72.9928 59.1161 71.8652 60.2438 70.4891 60.2438C69.113 60.2438 67.9854 59.1161 67.9854 57.7401C67.9854 56.364 69.113 55.2363 70.4891 55.2363C71.8652 55.2363 72.9928 56.364 72.9928 57.7401Z" fill="#CB5044"/>
</svg>
